<?xml version="1.0" encoding="UTF-8" standalone="no"?>
<!-- Created with Inkscape (http://www.inkscape.org/) -->

<svg
   width="149.6741mm"
   height="74.401352mm"
   viewBox="0 0 149.6741 74.401352"
   version="1.1"
   id="svg1"
   inkscape:version="1.4 (86a8ad7, 2024-10-11)"
   sodipodi:docname="path4-8.svg"
   xml:space="preserve"
   inkscape:export-filename="..\R13 Website\R13_Logo_1.4.png"
   inkscape:export-xdpi="300"
   inkscape:export-ydpi="300"
   xmlns:inkscape="http://www.inkscape.org/namespaces/inkscape"
   xmlns:sodipodi="http://sodipodi.sourceforge.net/DTD/sodipodi-0.dtd"
   xmlns="http://www.w3.org/2000/svg"
   xmlns:svg="http://www.w3.org/2000/svg"><sodipodi:namedview
     id="namedview1"
     pagecolor="#ffffff"
     bordercolor="#000000"
     borderopacity="0.25"
     inkscape:showpageshadow="2"
     inkscape:pageopacity="0.0"
     inkscape:pagecheckerboard="0"
     inkscape:deskcolor="#d1d1d1"
     inkscape:document-units="mm"
     inkscape:zoom="0.5"
     inkscape:cx="529"
     inkscape:cy="645"
     inkscape:window-width="1352"
     inkscape:window-height="1000"
     inkscape:window-x="2880"
     inkscape:window-y="0"
     inkscape:window-maximized="0"
     inkscape:current-layer="layer1"
     showguides="false"><sodipodi:guide
       position="149.6741,53.86552"
       orientation="1,0"
       id="guide3"
       inkscape:locked="false" /><sodipodi:guide
       position="148.41196,52.861173"
       orientation="1,0"
       id="guide4"
       inkscape:locked="false" /><inkscape:page
       x="0"
       y="0"
       width="149.6741"
       height="74.401352"
       id="page1"
       margin="0"
       bleed="0" /></sodipodi:namedview><defs
     id="defs1" /><g
     inkscape:label="Layer 1"
     inkscape:groupmode="layer"
     id="layer1"
     transform="translate(-30.180127,-110.96229)"><rect
       style="fill:#121212;fill-opacity:0.0661418;stroke:none;stroke-width:1.42;stroke-dasharray:none;stroke-opacity:1"
       id="rect1"
       width="179.99765"
       height="266.84851"
       x="15.018351"
       y="-22.461935" /><text
       xml:space="preserve"
       style="font-style:normal;font-variant:normal;font-weight:600;font-stretch:normal;font-size:7.72949px;font-family:Monda;-inkscape-font-specification:'Monda Semi-Bold';text-align:start;letter-spacing:0px;writing-mode:lr-tb;direction:ltr;text-anchor:start;fill:#0e0e0e;fill-opacity:1;stroke:none;stroke-width:1.09554;stroke-linecap:round;stroke-linejoin:bevel;stroke-dasharray:none;stroke-opacity:1"
       x="42.340542"
       y="186.69832"
       id="text3"
       transform="scale(1.0077297,0.99232958)"><tspan
         sodipodi:role="line"
         id="tspan3"
         style="font-style:normal;font-variant:normal;font-weight:600;font-stretch:normal;font-family:Monda;-inkscape-font-specification:'Monda Semi-Bold';fill:#0e0e0e;fill-opacity:1;stroke:none;stroke-width:1.09554"
         x="42.340542"
         y="186.69832">ESTIMATION &amp; BID MANAGEMENT</tspan></text></g><path
     id="path4-8"
     style="display:inline;fill:#0e0e0e;fill-opacity:1;stroke:#db9f54;stroke-width:0;stroke-dasharray:none;stroke-opacity:1"
     d="M 10.426503,0 0,3.051e-5 V 10.514425 74.401347 L 17.350438,64.409331 V 45.410207 l 9.3071,-4e-5 29.347069,18.999124 28.950772,4e-5 -3.2e-5,-4e-5 h 0.284199 7.442001 V 17.082064 0 H 76.31049 l -7.140149,17.480792 h 3.319111 2.841656 l -0.02944,40.032153 8.91e-4,0.197839 -21.444517,-14.881338 c 1.406919,-0.701888 2.752624,-1.529703 4.033763,-2.497468 1.627796,-1.229655 3.038426,-2.687679 4.244611,-4.369597 1.264412,-1.75135 2.234431,-3.721896 2.93375,-5.889314 0.726431,-2.251474 1.063964,-4.729599 1.063964,-7.388181 V 15.9601 c 0,-1.655253 -0.299881,-3.35383 -0.842125,-5.072259 C 64.724286,8.9958678 63.780649,7.2717029 62.486362,5.7040757 61.144944,4.0168483 59.435607,2.6802244 57.407772,1.6572969 55.174137,0.50247344 52.592862,1.3222e-4 49.791028,1.3222e-4 Z m 85.8477,0 v 17.480823 l 36.117537,0.09051 -0.0676,7.299091 h -22.32237 v 14.759012 l 22.32232,-0.09051 v 7.691392 H 96.274203 v 17.179014 h 41.947847 c 6.4188,0 11.45205,-5.763092 11.45205,-12.422861 V 37.263938 c -2.4111,-2.607254 -4.98367,-5.059252 -4.98367,-5.059252 0,0 2.57257,-2.714833 4.98367,-5.059231 V 13.068317 C 149.6741,6.34472 144.5621,6.103e-5 138.00777,6.103e-5 Z M 17.350406,17.496515 h 31.485392 v 5.188269 c 0,1.040929 -0.165006,1.852787 -0.429436,2.501455 -0.276026,0.650275 -0.62973,1.145325 -1.119086,1.590205 l -0.02012,0.0182 -0.01963,0.01871 c -0.48669,0.457725 -1.087239,0.845602 -1.882089,1.169021 -0.744227,0.287773 -1.618537,0.487991 -2.64814,0.577732 H 17.350409 Z"
     sodipodi:nodetypes="cccccccccccccccccccccccssscccccccccccccccsscccsccccscccccccc" /></svg>
