<?xml version="1.0" encoding="UTF-8" standalone="no"?>
<!-- Created with Inkscape (http://www.inkscape.org/) -->

<svg
   width="149.6741mm"
   height="74.401352mm"
   viewBox="0 0 149.6741 74.401352"
   version="1.1"
   id="svg1"
   inkscape:version="1.4 (86a8ad7, 2024-10-11)"
   sodipodi:docname="path4-8.svg"
   xml:space="preserve"
   inkscape:export-filename="path4-8.svg"
   inkscape:export-xdpi="300"
   inkscape:export-ydpi="300"
   xmlns:inkscape="http://www.inkscape.org/namespaces/inkscape"
   xmlns:sodipodi="http://sodipodi.sourceforge.net/DTD/sodipodi-0.dtd"
   xmlns="http://www.w3.org/2000/svg"
   xmlns:svg="http://www.w3.org/2000/svg"><sodipodi:namedview
     id="namedview1"
     pagecolor="#ffffff"
     bordercolor="#000000"
     borderopacity="0.25"
     inkscape:showpageshadow="2"
     inkscape:pageopacity="0.0"
     inkscape:pagecheckerboard="0"
     inkscape:deskcolor="#d1d1d1"
     inkscape:document-units="mm"
     inkscape:zoom="1"
     inkscape:cx="229.99999"
     inkscape:cy="79.499998"
     inkscape:window-width="1920"
     inkscape:window-height="974"
     inkscape:window-x="-11"
     inkscape:window-y="-6"
     inkscape:window-maximized="1"
     inkscape:current-layer="layer1"
     showguides="false"><sodipodi:guide
       position="149.6741,53.86552"
       orientation="1,0"
       id="guide3"
       inkscape:locked="false" /><sodipodi:guide
       position="148.41196,52.861173"
       orientation="1,0"
       id="guide4"
       inkscape:locked="false" /><inkscape:page
       x="0"
       y="0"
       width="149.6741"
       height="74.401352"
       id="page1"
       margin="0"
       bleed="0" /></sodipodi:namedview><defs
     id="defs1" /><g
     inkscape:label="Layer 1"
     inkscape:groupmode="layer"
     id="layer1"
     transform="translate(-30.180127,-110.96229)"><path
       d="m 43.091601,181.16539 h 3.57036 v 0.75106 h -2.570207 v 1.58515 h 2.275822 v 0.72841 h -2.275822 v 1.71725 h 2.611723 v 0.75106 h -3.611876 z m 6.684046,5.62728 q -0.581222,0 -1.139798,-0.13209 -0.554802,-0.13587 -0.977509,-0.37742 l 0.347223,-0.73974 q 0.31703,0.17739 0.773704,0.31703 0.460448,0.13965 0.973735,0.13965 0.377416,0 0.573673,-0.1019 0.196256,-0.10568 0.267966,-0.30571 0.07171,-0.20003 0.07171,-0.47932 0,-0.15474 -0.05284,-0.28306 -0.05284,-0.12832 -0.211353,-0.234 -0.154741,-0.10945 -0.47177,-0.20381 l -1.071863,-0.33212 q -0.430255,-0.1321 -0.675576,-0.33968 -0.24532,-0.21135 -0.347223,-0.49819 -0.101902,-0.28683 -0.101902,-0.64538 0,-0.52461 0.249094,-0.85296 0.249095,-0.33213 0.67935,-0.49064 0.434029,-0.15852 0.969961,-0.15852 0.600092,0 1.052992,0.10568 0.456674,0.10568 0.800123,0.30948 l -0.27174,0.72464 q -0.286837,-0.14342 -0.656705,-0.24532 -0.366094,-0.10568 -0.81522,-0.10568 -0.479319,0 -0.754833,0.13965 -0.275514,0.13964 -0.275514,0.54725 0,0.27552 0.13587,0.43026 0.13587,0.15474 0.532158,0.28306 l 1.090733,0.34345 q 0.562351,0.17361 0.834091,0.52461 0.275514,0.35099 0.275514,0.9926 0,0.48309 -0.184934,0.86051 -0.184934,0.37364 -0.584996,0.59255 -0.396287,0.21512 -1.034121,0.21512 z m 4.02326,-0.0943 v -4.75545 h -1.55873 v -0.77748 h 4.117614 v 0.77748 H 54.79906 v 4.75545 z m 3.396748,-0.74729 h 1.022799 v -4.04213 h -1.022799 v -0.74351 h 3.038203 v 0.74351 h -1.019025 v 4.04213 h 1.019025 v 0.74729 h -3.038203 z m 4.427096,0.74729 v -5.53293 h 1.056767 l 1.754986,2.96272 h -0.173611 l 1.747438,-2.96272 h 1.064315 v 5.53293 h -0.939767 v -4.32519 l 0.08303,0.0226 -1.520988,2.64569 h -0.686898 l -1.55873,-2.63059 0.116999,-0.0226 v 4.3101 z m 6.484015,0 1.902179,-5.53293 h 1.215281 l 1.917276,5.53293 H 72.08851 l -1.498343,-4.8498 h 0.101902 l -1.539859,4.8498 z m 0.985057,-1.06054 0.207579,-0.76616 h 2.657012 l 0.200031,0.76616 z m 5.842408,1.06054 v -4.75545 h -1.55873 v -0.77748 h 4.117614 v 0.77748 h -1.55873 v 4.75545 z m 3.396749,-0.74729 h 1.022798 V 181.9089 H 78.33098 v -0.74351 h 3.038202 v 0.74351 h -1.019024 v 4.04213 h 1.019024 v 0.74729 H 78.33098 Z m 6.70669,0.84164 q -0.728414,0 -1.196411,-0.15096 -0.467996,-0.15097 -0.728413,-0.41516 -0.260418,-0.26797 -0.366094,-0.62651 -0.101903,-0.35855 -0.101903,-0.77371 v -1.73611 q 0,-0.42648 0.101903,-0.79258 0.101902,-0.36609 0.362319,-0.64161 0.260418,-0.27551 0.728414,-0.42648 0.467997,-0.15474 1.200185,-0.15474 0.701994,0 1.154894,0.16229 0.4529,0.16229 0.705769,0.44913 0.256643,0.28306 0.354771,0.66048 0.101903,0.37364 0.101903,0.80012 v 1.62289 q 0,0.41138 -0.101903,0.77748 -0.101902,0.36609 -0.358545,0.64538 -0.252869,0.27929 -0.705769,0.44158 -0.449126,0.15851 -1.15112,0.15851 z m 0,-0.79257 q 0.445351,0 0.735962,-0.0868 0.290611,-0.0906 0.434029,-0.3208 0.147192,-0.23023 0.147192,-0.64538 v -2.00409 q 0,-0.41138 -0.147192,-0.64538 -0.143418,-0.234 -0.437803,-0.33212 -0.290611,-0.10191 -0.732188,-0.10191 -0.434029,0 -0.747285,0.0981 -0.313256,0.0944 -0.479319,0.33213 -0.162289,0.234 -0.162289,0.64915 v 2.00409 q 0,0.41515 0.162289,0.64538 0.162289,0.23022 0.475545,0.3208 0.313256,0.0868 0.751059,0.0868 z m 3.706229,-4.83471 h 0.754833 l 3.07217,4.13649 -0.101903,0.034 v -4.17045 h 0.886929 v 5.53293 h -0.785026 l -3.030655,-4.03081 0.09813,-0.034 v 4.06478 h -0.894477 z m 7.903104,3.82323 q 0,-0.5699 0.249094,-0.89825 0.249095,-0.33213 0.796349,-0.49442 -0.298159,-0.27551 -0.479319,-0.55102 -0.18116,-0.27929 -0.18116,-0.71332 0,-0.40384 0.166064,-0.69067 0.169837,-0.29061 0.558576,-0.44158 0.392513,-0.15474 1.052992,-0.15474 0.622737,0 1.011476,0.0981 0.392515,0.0981 0.577445,0.34722 0.18494,0.24532 0.18494,0.69067 v 0.3359 h -0.807675 v -0.18116 q 0,-0.26041 -0.08303,-0.38496 -0.08303,-0.12832 -0.286837,-0.16984 -0.200031,-0.0415 -0.554802,-0.0415 -0.388739,0 -0.584996,0.083 -0.196256,0.083 -0.264191,0.23022 -0.06416,0.14342 -0.06416,0.33968 0,0.14719 0.03774,0.25664 0.03774,0.10568 0.132095,0.22645 0.09813,0.117 0.275514,0.29061 l 1.811602,1.75876 q 0.004,-0.0415 0.004,-0.0642 0,-0.0264 0,-0.0717 v -1.13602 h 0.81145 v 1.03412 q 0,0.24532 -0.0189,0.48687 -0.0189,0.24154 -0.0717,0.41893 l 0.64538,0.61141 -0.53216,0.57745 -0.50196,-0.48687 q -0.21135,0.24155 -0.611416,0.37365 -0.396288,0.12832 -1.113379,0.12832 -0.626512,0 -1.045444,-0.11323 -0.415158,-0.117 -0.660479,-0.34345 -0.24532,-0.22645 -0.350997,-0.56612 -0.101902,-0.33968 -0.101902,-0.78503 z m 3.242007,0.71709 -1.751212,-1.68705 q -0.264192,0.0717 -0.381191,0.20758 -0.113225,0.1321 -0.143418,0.3208 -0.02642,0.18871 -0.02642,0.41894 0,0.38874 0.101902,0.62651 0.105677,0.23777 0.369868,0.34722 0.264192,0.10945 0.747285,0.10945 0.256643,0 0.47177,-0.0189 0.218902,-0.0189 0.377417,-0.0906 0.158515,-0.0717 0.233998,-0.234 z m 4.58561,0.99261 v -5.53293 h 2.09089 q 0.7737,0 1.18886,0.16607 0.41516,0.16229 0.5699,0.49064 0.15851,0.32458 0.15851,0.81899 0,0.43403 -0.16984,0.71709 -0.16983,0.27929 -0.67557,0.37742 l 0.004,-0.0491 q 0.41894,0.034 0.65671,0.21513 0.23777,0.18116 0.3359,0.47555 0.0981,0.29438 0.0981,0.67557 0,0.85674 -0.4529,1.25303 -0.4529,0.39251 -1.47948,0.39251 z m 1.00393,-0.70954 h 1.16621 q 0.43026,0 0.66803,-0.0755 0.23777,-0.0755 0.32835,-0.28683 0.0944,-0.21136 0.0944,-0.61897 0,-0.26796 -0.0642,-0.48309 -0.0642,-0.21513 -0.26797,-0.34345 -0.2038,-0.12832 -0.62274,-0.12832 h -1.30208 z m 0,-2.55889 h 1.23792 q 0.33213,0 0.49064,-0.0906 0.16229,-0.0906 0.21136,-0.26419 0.0491,-0.17739 0.0491,-0.42271 0,-0.32835 -0.0793,-0.49819 -0.0755,-0.16983 -0.29061,-0.22645 -0.21135,-0.0604 -0.61896,-0.0604 h -1.00015 z m 4.33274,2.52114 h 1.0228 v -4.04213 h -1.0228 v -0.74351 h 3.0382 v 0.74351 h -1.01902 v 4.04213 h 1.01902 v 0.74729 h -3.0382 z m 4.42709,0.74729 v -5.53293 h 2.33244 q 0.79257,0 1.23792,0.25287 0.44913,0.25287 0.63406,0.6869 0.18871,0.43025 0.18871,0.96996 v 1.73989 q 0,0.56612 -0.20003,0.99261 -0.20003,0.4227 -0.64916,0.6567 -0.44912,0.234 -1.20396,0.234 z m 1.00393,-0.76993 h 1.24547 q 0.39252,0 0.64539,-0.0906 0.25287,-0.0944 0.37364,-0.30948 0.12455,-0.2189 0.12455,-0.59255 v -1.97388 q 0,-0.36987 -0.12455,-0.59255 -0.12455,-0.22645 -0.37742,-0.32835 -0.25287,-0.10568 -0.64161,-0.10568 h -1.24547 z m 6.71424,0.76993 v -5.53293 h 1.05677 l 1.75499,2.96272 h -0.17362 l 1.74744,-2.96272 h 1.06432 v 5.53293 h -0.93977 v -4.32519 l 0.083,0.0226 -1.52099,2.64569 h -0.6869 l -1.55873,-2.63059 0.117,-0.0226 v 4.3101 z m 6.48402,0 1.90218,-5.53293 h 1.21528 l 1.91727,5.53293 h -1.05299 l -1.49834,-4.8498 h 0.1019 l -1.53986,4.8498 z m 0.98505,-1.06054 0.20758,-0.76616 h 2.65702 l 0.20003,0.76616 z m 5.0838,-4.47239 h 0.75484 l 3.07217,4.13649 -0.1019,0.034 v -4.17045 h 0.88692 v 5.53293 h -0.78502 l -3.03066,-4.03081 0.0981,-0.034 v 4.06478 h -0.89448 z m 5.64993,5.53293 1.90218,-5.53293 h 1.21528 l 1.91727,5.53293 h -1.05299 l -1.49834,-4.8498 h 0.1019 l -1.53986,4.8498 z m 0.98505,-1.06054 0.20758,-0.76616 h 2.65702 l 0.20003,0.76616 z m 7.31056,1.15489 q -0.72464,0 -1.19263,-0.14342 -0.468,-0.14341 -0.73219,-0.40006 -0.26419,-0.26041 -0.36987,-0.61141 -0.10568,-0.351 -0.10568,-0.76993 v -1.8116 q 0,-0.42648 0.10191,-0.78503 0.10567,-0.36232 0.36986,-0.63028 0.2642,-0.26797 0.73219,-0.41516 0.468,-0.15097 1.19641,-0.15097 0.702,0 1.1398,0.13587 0.4378,0.1321 0.6718,0.37364 0.234,0.24155 0.32081,0.5699 0.0868,0.32458 0.0868,0.70577 v 0.0868 l -0.96618,0.0717 v -0.17361 q 0,-0.39252 -0.12078,-0.60387 -0.117,-0.21135 -0.39251,-0.29439 -0.27174,-0.083 -0.73974,-0.083 -0.4378,0 -0.75106,0.0906 -0.31325,0.0906 -0.47932,0.32081 -0.16606,0.23022 -0.16606,0.64915 v 2.0607 q 0,0.41516 0.16229,0.63406 0.16606,0.2189 0.47932,0.30193 0.31325,0.0793 0.75483,0.0793 0.44535,0 0.73596,-0.0793 0.29439,-0.083 0.43403,-0.30193 0.14342,-0.2189 0.14342,-0.63406 v -0.44158 h -1.18131 v -0.67558 h 2.10976 v 2.83063 h -0.53216 l -0.15097,-0.73596 q -0.0264,0.117 -0.11322,0.26041 -0.083,0.14342 -0.25665,0.27174 -0.17361,0.12833 -0.46422,0.21136 -0.29061,0.0868 -0.72464,0.0868 z m 3.71378,-5.62728 h 3.57036 v 0.75106 h -2.5702 v 1.58515 h 2.27582 v 0.72841 h -2.27582 v 1.71725 h 2.61172 v 0.75106 h -3.61188 z m 4.8347,5.53293 v -5.53293 h 1.05677 l 1.75499,2.96272 h -0.17362 l 1.74744,-2.96272 h 1.06432 v 5.53293 h -0.93977 v -4.32519 l 0.083,0.0226 -1.52099,2.64569 h -0.68689 l -1.55873,-2.63059 0.11699,-0.0226 v 4.3101 z m 6.95202,-5.53293 h 3.57036 v 0.75106 h -2.5702 v 1.58515 h 2.27582 v 0.72841 h -2.27582 v 1.71725 h 2.61172 v 0.75106 h -3.61188 z m 4.8347,0 h 0.75484 l 3.07217,4.13649 -0.10191,0.034 v -4.17045 h 0.88693 v 5.53293 h -0.78502 l -3.03066,-4.03081 0.0981,-0.034 v 4.06478 h -0.89448 z m 7.12563,5.53293 v -4.75545 h -1.55873 v -0.77748 h 4.11761 v 0.77748 h -1.55873 v 4.75545 z"
       id="text3"
       style="font-weight:600;font-size:7.72949px;font-family:Monda;-inkscape-font-specification:'Monda Semi-Bold';letter-spacing:0px;fill:#0e0e0e;stroke-width:1.09554;stroke-linecap:round;stroke-linejoin:bevel"
       transform="scale(1.0077297,0.99232958)"
       aria-label="ESTIMATION &amp; BID MANAGEMENT"
       inkscape:export-filename="path4-8.svg"
       inkscape:export-xdpi="300"
       inkscape:export-ydpi="300" /></g><path
     id="path4-8"
     style="display:inline;fill:#0e0e0e;fill-opacity:1;stroke:#db9f54;stroke-width:0;stroke-dasharray:none;stroke-opacity:1"
     d="M 10.426503,0 0,3.051e-5 V 10.514425 74.401347 L 17.350438,64.409331 V 45.410207 l 9.3071,-4e-5 29.347069,18.999124 28.950772,4e-5 -3.2e-5,-4e-5 h 0.284199 7.442001 V 17.082064 0 H 76.31049 l -7.140149,17.480792 h 3.319111 2.841656 l -0.02944,40.032153 8.91e-4,0.197839 -21.444517,-14.881338 c 1.406919,-0.701888 2.752624,-1.529703 4.033763,-2.497468 1.627796,-1.229655 3.038426,-2.687679 4.244611,-4.369597 1.264412,-1.75135 2.234431,-3.721896 2.93375,-5.889314 0.726431,-2.251474 1.063964,-4.729599 1.063964,-7.388181 V 15.9601 c 0,-1.655253 -0.299881,-3.35383 -0.842125,-5.072259 C 64.724286,8.9958678 63.780649,7.2717029 62.486362,5.7040757 61.144944,4.0168483 59.435607,2.6802244 57.407772,1.6572969 55.174137,0.50247344 52.592862,1.3222e-4 49.791028,1.3222e-4 Z m 85.8477,0 v 17.480823 l 36.117537,0.09051 -0.0676,7.299091 h -22.32237 v 14.759012 l 22.32232,-0.09051 v 7.691392 H 96.274203 v 17.179014 h 41.947847 c 6.4188,0 11.45205,-5.763092 11.45205,-12.422861 V 37.263938 c -2.4111,-2.607254 -4.98367,-5.059252 -4.98367,-5.059252 0,0 2.57257,-2.714833 4.98367,-5.059231 V 13.068317 C 149.6741,6.34472 144.5621,6.103e-5 138.00777,6.103e-5 Z M 17.350406,17.496515 h 31.485392 v 5.188269 c 0,1.040929 -0.165006,1.852787 -0.429436,2.501455 -0.276026,0.650275 -0.62973,1.145325 -1.119086,1.590205 l -0.02012,0.0182 -0.01963,0.01871 c -0.48669,0.457725 -1.087239,0.845602 -1.882089,1.169021 -0.744227,0.287773 -1.618537,0.487991 -2.64814,0.577732 H 17.350409 Z"
     sodipodi:nodetypes="cccccccccccccccccccccccssscccccccccccccccsscccsccccscccccccc" /></svg>
